# xmcd
#
# Track frame offsets: 
#        150
#        9085
#        22203
#        44525
#        60191
#        70150
#
# Disc length: 1177 seconds
#
# Revision: 0
# Processed by: cddbd v1.5.2PL0 Copyright (c) Steve Scherf et al.
# Submitted via: ExactAudioCopy v1.3
#
DISCID=43049706
DTITLE=Davy Knowles - 1932
DYEAR=2017
DGENRE=Blues
TTITLE0=First Words Of A Changing Man
TTITLE1=Watchmaker's Blues
TTITLE2=As The Crow Flies
TTITLE3=If I Had A Penny
TTITLE4=A Spoonful Blues
TTITLE5=Liar's Club
EXTD=
EXTT0=
EXTT1=
EXTT2=
EXTT3=
EXTT4=
EXTT5=
PLAYORDER=
